<?xml version="1.0" standalone="no"?>
<!DOCTYPE svg PUBLIC "-//W3C//DTD SVG 20010904//EN"
 "http://www.w3.org/TR/2001/REC-SVG-20010904/DTD/svg10.dtd">
<svg version="1.0" xmlns="http://www.w3.org/2000/svg"
 width="275.000000pt" height="275.000000pt" viewBox="0 0 275.000000 275.000000"
 preserveAspectRatio="xMidYMid meet">

<g transform="translate(0.000000,275.000000) scale(0.100000,-0.100000)"
fill="#000000" stroke="none">
<path d="M1250 2630 c0 -5 7 -10 15 -10 15 0 21 -17 28 -75 3 -20 4 -15 6 16
1 31 6 49 16 53 29 11 15 26 -25 26 -22 0 -40 -4 -40 -10z"/>
<path d="M1350 2580 l0 -60 30 0 c17 0 30 5 30 10 0 6 -9 10 -20 10 -11 0 -20
7 -20 15 0 8 9 15 20 15 11 0 20 5 20 10 0 6 -11 10 -25 10 -37 0 -35 37 3 43
25 4 25 4 -5 6 l-33 1 0 -60z"/>
<path d="M1430 2627 c0 -8 -3 -35 -6 -61 -5 -31 -3 -46 5 -46 7 0 11 19 11 50
0 38 4 50 15 50 11 0 15 -13 17 -52 l1 -53 6 49 c8 69 29 71 34 4 4 -52 4 -52
3 7 l-1 60 -42 3 c-32 2 -43 -1 -43 -11z"/>
<path d="M1155 2620 c-3 -5 -3 -21 1 -35 5 -19 13 -25 34 -25 15 0 30 -7 33
-14 8 -21 -30 -31 -50 -14 -14 11 -16 11 -11 -2 5 -16 66 -27 79 -13 4 4 5 21
2 37 -5 26 -9 28 -39 23 -28 -5 -34 -3 -34 12 0 22 41 36 52 18 5 -8 8 -7 8 6
0 13 -8 17 -34 17 -19 0 -37 -4 -41 -10z"/>
<path d="M1550 2606 c0 -14 -4 -28 -10 -31 -5 -3 -10 -19 -10 -36 0 -16 5 -29
10 -29 6 0 10 9 10 19 0 11 4 22 9 25 18 11 41 -6 41 -30 0 -50 18 -22 22 34
2 31 4 58 3 58 0 1 -17 4 -37 8 -36 6 -38 5 -38 -18z m60 -16 c0 -15 -7 -20
-25 -20 -18 0 -25 5 -25 20 0 15 7 20 25 20 18 0 25 -5 25 -20z"/>
<path d="M1126 2570 c3 -30 9 -59 14 -64 20 -20 19 3 0 60 l-20 59 6 -55z"/>
<path d="M1055 2603 c-30 -7 -37 -18 -29 -47 5 -23 11 -27 37 -24 24 2 32 -1
35 -16 3 -16 -1 -18 -27 -14 -21 3 -31 0 -31 -9 0 -14 21 -16 58 -7 19 5 23
12 20 38 -3 29 -5 31 -41 28 -33 -3 -38 -1 -35 15 2 12 12 18 31 18 16 -1 27
5 27 12 0 13 -9 14 -45 6z"/>
<path d="M1646 2588 c-10 -38 -7 -46 16 -50 30 -4 37 -38 9 -38 -11 0 -25 8
-30 18 -9 15 -10 15 -11 -5 0 -17 7 -23 35 -29 42 -8 43 -7 47 30 2 25 -1 31
-22 36 -32 8 -40 40 -10 40 11 0 23 -7 26 -15 8 -20 24 -19 24 0 0 15 -37 35
-64 35 -8 0 -16 -10 -20 -22z"/>
<path d="M913 2558 l-22 -11 19 -49 c10 -28 21 -52 23 -55 8 -7 57 9 57 18 0
5 -11 7 -25 3 -19 -5 -25 -2 -25 10 0 9 7 19 15 22 24 10 17 25 -9 18 -30 -7
-45 22 -15 31 10 4 19 11 19 16 0 11 -9 11 -37 -3z"/>
<path d="M1793 2553 c-3 -10 -12 -33 -19 -52 -18 -43 -20 -40 22 -57 30 -13
38 -13 45 -2 13 20 11 32 -4 20 -14 -12 -57 -5 -57 8 0 4 7 24 16 45 10 26 20
35 30 31 9 -3 18 -6 20 -6 2 0 4 -7 4 -15 0 -19 16 -19 24 0 4 10 -6 20 -31
30 -44 19 -42 19 -50 -2z"/>
<path d="M835 2523 c-17 -9 -31 -17 -33 -18 -6 -5 41 -105 50 -105 10 0 68 29
68 34 0 9 -41 96 -48 100 -4 2 -21 -3 -37 -11z m48 -38 c22 -45 21 -52 -3 -58
-15 -4 -25 4 -41 30 -22 35 -22 36 -4 49 26 20 29 18 48 -21z"/>
<path d="M1872 2485 c-12 -25 -22 -50 -22 -55 0 -8 51 -40 64 -40 6 0 56 95
56 105 0 4 -66 35 -74 35 -1 0 -12 -20 -24 -45z m62 12 c17 -13 17 -15 -7 -50
-21 -31 -27 -34 -41 -24 -16 11 -16 15 -1 50 17 41 22 43 49 24z"/>
<path d="M1336 2471 c-4 -7 -45 -12 -104 -13 l-97 -2 90 -5 89 -6 1 -35 0 -35
260 -3 c156 -1 256 1 250 7 -17 15 -146 58 -226 74 -109 23 -254 33 -263 18z"/>
<path d="M1957 2431 c-17 -31 -24 -52 -17 -56 6 -4 19 13 31 39 11 25 23 46
28 46 20 0 18 -16 -5 -56 -14 -24 -22 -44 -17 -44 4 0 18 18 31 40 22 39 42
52 42 29 0 -7 -10 -27 -21 -46 -12 -19 -19 -36 -16 -39 4 -5 57 78 57 90 0 8
-62 46 -75 46 -5 0 -22 -22 -38 -49z"/>
<path d="M700 2454 c-14 -10 -27 -19 -29 -20 -5 -4 28 -86 41 -101 18 -22 28
-3 12 22 -14 22 -14 24 7 35 17 10 23 9 30 -1 5 -8 9 -17 9 -21 0 -5 5 -8 10
-8 17 0 11 27 -10 52 -11 12 -26 31 -33 41 -11 16 -13 16 -37 1z m36 -26 c9
-15 -27 -41 -39 -29 -13 13 -1 41 17 41 8 0 18 -5 22 -12z"/>
<path d="M1023 2423 c-111 -35 -111 -53 1 -53 l84 0 4 40 c2 22 1 40 -2 39 -3
0 -42 -12 -87 -26z"/>
<path d="M621 2430 c-1 -19 66 -120 79 -120 18 0 10 16 -26 56 -19 21 -39 48
-44 59 -6 14 -9 15 -9 5z"/>
<path d="M2058 2379 c-27 -38 -35 -59 -22 -59 4 0 12 8 19 17 12 16 16 16 40
3 25 -14 28 -13 47 10 l20 24 -29 23 c-15 13 -32 23 -38 23 -5 -1 -22 -19 -37
-41z m66 -2 c7 -11 7 -20 1 -26 -15 -14 -49 14 -41 34 7 19 25 16 40 -8z"/>
<path d="M571 2361 l-25 -19 25 -34 c40 -53 41 -56 18 -68 -28 -16 -54 6 -26
21 9 6 15 15 11 20 -4 6 -14 3 -25 -7 -15 -13 -22 -15 -31 -6 -9 9 -7 16 5 30
25 27 21 35 -8 16 -34 -22 -32 -33 15 -79 l41 -40 31 34 c28 30 30 36 18 54
-11 18 -10 22 6 34 16 12 21 11 36 -9 14 -18 18 -20 18 -6 0 13 -68 79 -81 78
-2 0 -15 -9 -28 -19z m45 -12 c3 -6 -1 -18 -10 -27 -15 -15 -18 -15 -26 -2 -5
9 -5 19 2 27 13 16 25 17 34 2z"/>
<path d="M2135 2319 l-37 -41 30 -31 31 -31 39 45 c22 24 38 48 35 52 -3 5
-19 -9 -37 -29 -23 -26 -38 -36 -49 -31 -23 9 -21 18 8 62 36 52 25 54 -20 4z"/>
<path d="M940 2324 c0 -14 -11 -16 -77 -12 -77 4 -78 4 -138 -36 l-60 -41 52
-3 c29 -2 77 -2 108 0 l55 3 -14 28 -15 27 45 0 c42 0 44 -1 44 -30 l0 -30 88
0 89 0 -5 30 -4 30 106 0 106 0 0 -30 0 -30 85 0 85 0 0 30 0 30 93 0 c82 0
99 -3 155 -30 41 -19 80 -30 108 -30 41 0 46 3 55 29 9 25 17 30 47 33 l37 3
-36 23 c-36 22 -43 22 -338 22 -261 0 -301 -2 -301 -15 0 -12 -18 -15 -100
-15 -82 0 -100 3 -100 15 0 12 -16 15 -85 15 -71 0 -85 -3 -85 -16z"/>
<path d="M2255 2280 c5 -20 -1 -32 -25 -55 -16 -16 -30 -33 -30 -39 0 -5 16 5
35 24 28 27 37 31 49 21 11 -9 16 -9 21 0 4 6 -6 25 -24 43 -32 30 -32 31 -26
6z"/>
<path d="M460 2262 c0 -16 79 -84 92 -80 8 3 -2 19 -32 47 -44 40 -60 49 -60
33z"/>
<path d="M469 2206 l33 -34 -38 9 c-76 17 -82 13 -39 -31 21 -22 45 -40 52
-40 23 0 14 17 -19 39 l-33 21 53 -6 c28 -4 52 -3 52 2 0 10 -75 74 -86 74 -4
0 7 -15 25 -34z"/>
<path d="M2290 2196 c-46 -31 -68 -56 -48 -56 8 0 19 5 26 12 10 10 16 8 29
-5 16 -15 16 -18 -1 -36 -9 -10 -13 -22 -8 -25 9 -5 82 69 82 82 -1 8 -36 52
-42 51 -1 0 -19 -11 -38 -23z m50 -41 c-11 -14 -14 -13 -25 2 -19 26 2 51 23
29 13 -12 13 -18 2 -31z"/>
<path d="M562 2137 c-29 -29 -52 -56 -52 -60 0 -4 44 -7 98 -7 96 0 99 1 127
30 29 30 31 31 115 28 85 -3 85 -3 88 -30 l3 -28 90 0 89 0 0 30 0 31 98 -3
97 -3 3 -27 3 -28 90 0 89 0 0 30 0 30 260 0 260 0 0 -30 0 -30 106 0 c120 0
118 -5 40 78 -33 35 -46 42 -78 42 -29 0 -41 -6 -54 -25 l-17 -25 -261 2 -261
3 -3 23 c-3 21 -8 22 -87 22 -79 0 -84 -1 -87 -22 -3 -22 -8 -23 -100 -26
l-98 -3 0 26 c0 25 0 25 -89 25 -85 0 -90 -1 -93 -22 -3 -21 -9 -23 -78 -26
l-74 -3 24 26 23 25 -109 0 -110 0 -52 -53z"/>
<path d="M356 2143 c-10 -14 -15 -28 -9 -32 5 -3 26 -19 47 -35 l37 -29 22 21
c11 12 17 25 13 29 -4 4 -13 0 -21 -10 -11 -15 -14 -15 -25 -2 -10 12 -10 18
0 30 7 8 8 15 2 15 -5 0 -15 -7 -22 -15 -10 -12 -16 -13 -27 -4 -11 10 -11 15
2 29 9 10 13 20 8 23 -4 3 -16 -6 -27 -20z"/>
<path d="M2343 2109 c-24 -17 -43 -33 -43 -37 0 -4 11 -20 24 -37 24 -29 25
-29 43 -11 17 18 17 18 -2 12 -14 -4 -24 1 -33 15 -11 18 -11 23 5 35 42 33
54 36 68 18 7 -10 11 -24 8 -31 -6 -15 13 -18 22 -3 6 10 -31 70 -43 70 -4 -1
-26 -14 -49 -31z"/>
<path d="M314 2088 c-4 -7 -14 -23 -21 -34 -13 -20 -10 -24 37 -54 49 -31 51
-32 65 -14 25 33 28 55 8 69 -12 9 -22 10 -30 3 -16 -13 -7 -29 12 -21 17 6
19 -5 6 -26 -8 -12 -15 -12 -45 3 -40 19 -46 38 -16 59 11 8 17 17 13 20 -10
11 -21 8 -29 -5z"/>
<path d="M2398 2026 c-27 -18 -45 -36 -41 -39 11 -11 16 -8 63 33 54 48 43 51
-22 6z"/>
<path d="M463 2018 c-23 -25 -63 -89 -63 -100 0 -5 38 -8 84 -8 85 0 85 0 114
35 l29 36 154 -3 154 -3 3 -33 3 -33 87 3 87 3 3 33 3 33 97 -3 97 -3 3 -33 3
-33 87 3 87 3 3 33 3 32 260 0 259 0 0 -35 0 -35 160 0 c88 0 160 4 160 8 0 5
-17 33 -38 63 l-38 54 -122 3 -122 3 0 -26 0 -25 -259 0 -260 0 -3 23 c-3 21
-8 22 -90 25 -84 3 -87 2 -90 -20 -3 -22 -8 -23 -100 -26 -94 -3 -97 -2 -100
20 -3 22 -8 23 -90 26 -84 3 -87 2 -90 -20 -3 -23 -5 -23 -150 -26 -82 -1
-148 1 -148 4 0 4 7 16 17 26 15 17 13 18 -79 18 -85 0 -97 -2 -115 -22z"/>
<path d="M2445 2016 c-11 -7 -32 -20 -48 -30 -27 -16 -27 -17 -11 -49 9 -18
18 -33 19 -35 2 -2 20 6 42 17 67 36 67 35 49 69 -20 39 -27 43 -51 28z m45
-48 c0 -5 -16 -16 -36 -24 -28 -12 -39 -12 -50 -3 -21 17 -18 23 24 47 34 20
38 20 50 5 6 -9 12 -21 12 -25z"/>
<path d="M282 1997 c9 -7 24 -17 34 -23 15 -9 9 -12 -35 -18 -30 -4 -50 -11
-45 -15 23 -21 95 -54 101 -47 8 8 -18 26 -52 38 -14 4 -7 6 20 7 50 2 72 13
53 28 -18 14 -75 43 -85 43 -4 0 -1 -6 9 -13z"/>
<path d="M2458 1909 c-21 -11 -38 -24 -38 -29 0 -15 11 -12 48 10 l32 20 -25
-39 c-19 -28 -24 -46 -20 -64 6 -22 10 -25 30 -17 17 7 25 5 29 -6 10 -25 7
-32 -14 -39 -21 -7 -28 -25 -9 -25 7 0 31 10 55 22 46 22 54 41 31 72 -11 15
-19 16 -61 6 -27 -6 -50 -9 -53 -7 -2 2 20 15 49 27 29 13 48 25 41 27 -6 2
-25 -3 -42 -11 -43 -23 -46 -20 -19 17 13 17 28 38 32 45 11 18 -23 14 -66 -9z
m101 -140 c-10 -6 -17 -3 -23 12 -7 15 -6 23 5 30 10 6 17 3 23 -12 7 -15 6
-23 -5 -30z"/>
<path d="M220 1913 c0 -9 83 -53 100 -53 6 0 10 4 10 9 0 8 -19 17 -97 48 -7
3 -13 1 -13 -4z"/>
<path d="M352 1835 c-12 -25 -22 -50 -22 -55 0 -6 36 -10 83 -10 80 0 84 1 95
25 l12 25 207 -2 c207 -3 208 -3 211 -25 3 -22 8 -23 93 -23 89 0 89 0 89 25
l0 26 98 -3 c92 -3 97 -4 100 -25 3 -22 8 -23 93 -23 88 0 89 0 89 25 l0 25
260 0 260 0 0 -25 c0 -25 1 -25 80 -25 79 0 80 0 80 25 0 20 5 25 25 25 15 0
31 -9 41 -25 15 -23 22 -25 90 -25 41 0 74 3 74 8 -1 4 -11 27 -23 52 l-22 45
-172 3 -173 2 0 -25 0 -25 -260 0 -260 0 0 25 c0 25 -1 25 -89 25 -85 0 -90
-1 -93 -22 -3 -22 -8 -23 -100 -26 l-98 -3 0 26 c0 25 0 25 -89 25 -85 0 -90
-1 -93 -22 -3 -23 -4 -23 -206 -26 -199 -2 -203 -2 -192 17 5 11 10 22 10 25
0 3 -40 6 -88 6 l-88 0 -22 -45z"/>
<path d="M174 1814 c-8 -29 -1 -35 58 -55 43 -14 58 -5 57 36 0 18 -1 18 -11
-3 -14 -27 -33 -23 -32 7 0 11 -3 21 -8 21 -4 0 -8 -3 -8 -7 -1 -19 -18 -33
-33 -27 -12 4 -14 11 -7 30 6 15 6 24 0 24 -5 0 -13 -12 -16 -26z"/>
<path d="M144 1730 c-4 -16 -7 -33 -8 -36 -1 -9 62 -32 91 -33 15 -1 24 8 32
31 13 36 9 41 -38 57 -55 18 -71 14 -77 -19z m104 -6 c2 -1 1 -12 -3 -23 -6
-18 -12 -20 -48 -15 -23 4 -43 8 -45 9 -1 1 2 14 7 28 9 24 12 25 48 14 21 -6
40 -12 41 -13z"/>
<path d="M295 1688 c-23 -80 -25 -78 65 -78 77 0 81 1 90 25 l10 25 240 0 240
0 0 -25 c0 -25 1 -25 90 -25 89 0 90 0 90 25 l0 25 100 0 100 0 0 -25 c0 -25
1 -25 90 -25 89 0 90 0 90 25 l0 25 260 0 260 0 0 -25 c0 -25 1 -25 80 -25 79
0 80 0 80 25 0 22 4 25 38 25 34 0 38 -3 38 -22 -1 -22 2 -23 102 -26 l104 -3
-7 33 c-4 18 -13 48 -21 66 -13 31 -14 32 -78 32 l-65 0 6 -30 6 -30 -62 0
-61 0 0 30 0 30 -80 0 -80 0 0 -30 0 -30 -259 0 -260 0 -3 28 c-3 27 -3 27
-90 30 l-88 3 0 -31 0 -30 -100 0 -100 0 0 30 0 30 -90 0 -90 0 0 -30 0 -30
-240 0 c-235 0 -240 0 -230 19 19 37 12 41 -75 41 l-84 0 -16 -52z"/>
<path d="M2537 1720 c-47 -9 -48 -10 -41 -48 8 -38 26 -43 22 -6 -3 24 2 28
45 41 73 21 58 30 -26 13z"/>
<path d="M2552 1640 c-42 -10 -44 -12 -36 -44 8 -33 23 -34 16 -1 -3 19 0 25
13 25 9 0 19 -9 22 -20 8 -30 22 -24 20 8 -2 33 26 38 31 5 2 -13 8 -23 14
-23 6 0 8 10 4 23 -3 12 -6 25 -6 30 0 9 -34 8 -78 -3z"/>
<path d="M110 1594 c0 -11 -3 -29 -6 -40 -5 -19 -1 -23 38 -29 23 -3 50 -9 60
-11 12 -4 18 5 23 36 4 23 5 43 3 45 -1 2 -29 6 -60 10 -52 7 -58 6 -58 -11z
m97 -9 c6 -2 9 -13 6 -24 -4 -17 -13 -21 -49 -21 -39 0 -44 2 -44 23 0 13 3
26 6 30 6 5 50 1 81 -8z"/>
<path d="M267 1563 c-3 -5 -8 -32 -12 -60 l-7 -53 316 0 c325 0 340 2 304 38
-9 9 -3 12 30 12 38 0 42 -2 42 -25 0 -25 1 -25 90 -25 89 0 90 0 90 25 l0 25
100 0 100 0 0 -25 0 -25 298 0 c263 1 295 2 278 15 -16 12 -57 15 -197 15
-108 0 -180 4 -184 10 -4 7 82 10 249 10 l256 0 0 -25 c0 -25 1 -25 80 -25 79
0 80 0 80 25 0 24 3 25 60 25 33 0 60 -4 60 -9 0 -20 37 -20 99 0 78 26 85 31
76 58 -6 19 -14 21 -105 21 l-100 0 10 -25 c9 -25 9 -25 -45 -25 -52 0 -55 1
-55 25 0 25 -1 25 -80 25 -79 0 -80 0 -80 -25 l0 -25 -260 0 -260 0 0 25 c0
25 -1 25 -90 25 -89 0 -90 0 -90 -25 l0 -25 -100 0 -100 0 0 25 c0 25 -1 25
-90 25 -89 0 -90 0 -90 -25 l0 -25 -260 0 -260 0 6 25 6 25 -80 0 c-45 0 -83
-3 -85 -7z"/>
<path d="M2580 1536 c0 -25 -5 -36 -14 -36 -20 0 -32 40 -15 51 11 7 10 9 -3
9 -14 0 -18 -9 -18 -41 0 -39 1 -40 33 -37 29 3 32 6 32 38 0 24 5 36 16 38
20 4 33 -36 17 -55 -8 -10 -6 -13 6 -13 14 0 17 8 14 38 -3 34 -6 37 -35 40
-32 3 -33 2 -33 -32z"/>
<path d="M134 1503 c-23 -3 -34 -11 -38 -26 -10 -38 -7 -44 27 -51 17 -3 44
-9 60 -12 16 -4 27 -2 27 4 0 6 -10 12 -22 14 -17 2 -23 10 -23 28 0 21 4 25
28 22 15 -2 27 1 27 7 0 6 -6 11 -14 11 -8 0 -20 2 -28 3 -7 2 -27 2 -44 0z
m16 -38 c0 -18 -5 -25 -20 -25 -15 0 -20 7 -20 25 0 18 5 25 20 25 15 0 20 -7
20 -25z"/>
<path d="M250 1365 l0 -55 119 0 c66 0 121 4 123 9 2 5 103 11 226 13 179 4
222 2 222 -9 0 -10 32 -13 145 -13 126 0 145 2 145 16 0 14 22 15 208 9 114
-4 211 -11 217 -16 5 -5 67 -9 137 -9 107 0 128 2 128 15 0 11 12 15 50 15 38
0 50 -4 50 -15 0 -12 16 -15 80 -15 64 0 80 3 80 15 0 13 24 15 155 15 97 0
155 4 155 10 0 6 -58 10 -155 10 l-155 0 0 30 0 30 -80 0 -80 0 0 -30 c0 -29
-1 -30 -50 -30 -49 0 -50 1 -50 30 l0 30 -300 0 c-285 0 -300 -1 -300 -18 0
-11 10 -24 23 -30 18 -9 7 -11 -56 -11 -71 -1 -82 2 -122 29 -41 28 -50 30
-134 30 l-91 0 0 -30 c0 -26 -4 -30 -28 -30 -26 0 -28 3 -24 30 l4 30 -321 0
-321 0 0 -55z"/>
<path d="M2570 1395 c0 -14 5 -25 10 -25 6 0 10 11 10 25 0 14 -4 25 -10 25
-5 0 -10 -11 -10 -25z"/>
<path d="M91 1363 c0 -39 2 -44 9 -25 8 18 18 22 62 24 l53 2 -47 3 c-40 3
-48 8 -48 24 0 10 -7 19 -15 19 -11 0 -15 -12 -14 -47z"/>
<path d="M199 1295 c-4 -28 -8 -30 -54 -35 l-50 -6 53 -8 c30 -4 57 -4 61 0 4
5 4 25 1 44 l-6 35 -5 -30z"/>
<path d="M2540 1269 c0 -10 14 -14 56 -12 63 1 88 13 28 13 -21 0 -49 3 -61 6
-16 4 -23 2 -23 -7z"/>
<path d="M255 1218 c4 -29 9 -56 12 -60 2 -5 60 -8 128 -8 106 0 124 2 119 15
-5 13 22 15 210 15 185 0 216 -2 216 -15 0 -13 23 -15 145 -15 122 0 145 2
145 15 0 13 31 15 215 15 184 0 215 -2 215 -15 0 -13 21 -15 130 -15 109 0
130 2 130 15 0 11 12 15 50 15 38 0 50 -4 50 -15 0 -12 16 -15 80 -15 64 0 80
3 80 15 0 13 23 15 150 15 93 0 150 4 150 10 0 6 -57 10 -150 10 l-150 0 0 35
0 35 -80 0 -80 0 0 -35 0 -35 -50 0 -50 0 0 35 0 35 -130 0 -130 0 0 -35 0
-35 -215 0 -215 0 0 35 0 35 -145 0 -145 0 0 -35 0 -35 -220 0 c-210 0 -220 1
-220 19 0 49 -5 51 -132 51 l-120 0 7 -52z"/>
<path d="M128 1223 c-16 -2 -28 -8 -28 -12 0 -4 21 -5 48 -1 53 9 62 6 62 -19
0 -12 -13 -22 -42 -31 -67 -20 -67 -20 -4 -16 32 3 60 6 62 8 2 2 1 21 -3 41
-6 39 -14 42 -95 30z"/>
<path d="M2587 1204 c-4 -4 -7 -18 -7 -31 0 -19 -5 -23 -30 -23 -51 0 -33 -18
25 -25 31 -4 57 -6 59 -4 2 2 6 21 10 42 5 29 4 37 -8 37 -8 0 -21 2 -28 5 -8
3 -17 2 -21 -1z m43 -38 c0 -27 -17 -43 -31 -29 -12 12 1 53 17 53 8 0 14 -10
14 -24z"/>
<path d="M195 1131 c-3 -6 0 -11 8 -11 14 0 27 -20 27 -40 0 -8 -61 -30 -84
-30 -5 0 -6 16 -3 35 5 28 2 35 -10 35 -12 0 -14 -7 -10 -36 3 -20 8 -39 11
-41 6 -7 87 5 103 15 17 10 1 76 -19 80 -9 2 -19 -2 -23 -7z"/>
<path d="M2505 1084 c-4 -26 -2 -39 7 -45 18 -12 108 -11 108 0 0 5 3 16 6 24
3 10 -8 21 -36 36 -60 31 -76 28 -85 -15z m55 -15 c0 -20 -24 -26 -35 -9 -4 6
-4 17 -1 25 7 20 36 7 36 -16z m50 -2 c0 -19 -10 -27 -25 -20 -17 6 -8 33 11
33 8 0 14 -6 14 -13z"/>
<path d="M280 1097 c0 -7 7 -34 16 -60 l16 -47 130 0 c112 0 129 2 124 15 -5
13 20 15 184 15 162 0 190 -2 190 -15 0 -13 22 -15 140 -15 118 0 140 2 140
15 0 13 31 15 220 15 189 0 220 -2 220 -15 0 -13 21 -15 130 -15 109 0 130 2
130 15 0 11 12 15 50 15 38 0 50 -4 50 -15 0 -12 16 -15 80 -15 64 0 80 3 80
15 0 12 13 15 55 15 44 0 53 -3 49 -15 -5 -13 6 -15 68 -15 l75 0 11 39 c7 21
12 41 12 45 0 3 -29 6 -65 6 -54 0 -66 -3 -75 -20 -9 -17 -21 -20 -70 -20
l-60 0 0 35 0 35 -80 0 -80 0 0 -35 0 -35 -50 0 -50 0 0 35 0 35 -130 0 -130
0 0 -35 0 -35 -220 0 -220 0 0 35 0 35 -140 0 -140 0 0 -35 0 -35 -194 0 -194
0 -12 35 -12 35 -124 0 c-96 0 -124 -3 -124 -13z"/>
<path d="M190 1028 c-25 -13 -46 -23 -48 -24 -1 0 3 -15 9 -33 11 -31 13 -32
53 -26 60 9 76 15 76 27 0 6 -12 8 -29 5 -23 -5 -30 -2 -34 14 -4 14 1 23 18
31 14 6 22 15 19 19 -7 13 -14 11 -64 -13z m10 -27 c0 -5 3 -16 6 -25 4 -11 0
-16 -14 -16 -24 0 -38 30 -20 42 17 10 28 10 28 -1z"/>
<path d="M2480 994 c-7 -19 -9 -38 -6 -41 3 -4 11 8 17 26 8 22 16 30 26 27 8
-3 16 -6 18 -6 2 0 -1 -14 -7 -31 -8 -25 -8 -33 3 -40 26 -16 49 -9 59 17 17
43 10 61 -8 22 -12 -26 -21 -35 -30 -29 -10 6 -10 14 -2 35 5 15 10 29 10 31
0 3 -58 25 -66 25 -1 0 -8 -16 -14 -36z"/>
<path d="M336 928 c3 -13 15 -40 25 -60 l19 -38 141 0 c135 0 139 1 129 19 -5
11 -10 22 -10 25 0 3 68 6 150 6 l150 0 0 -25 0 -25 140 0 140 0 0 25 0 25
220 0 220 0 0 -25 0 -25 130 0 130 0 0 25 c0 23 3 25 49 25 44 0 50 -3 53 -22
3 -23 5 -23 168 -26 l166 -2 27 55 c15 30 27 58 27 60 0 3 -34 5 -75 5 -71 0
-76 -2 -87 -25 -15 -34 -55 -34 -64 0 -6 24 -9 25 -85 25 -78 0 -79 0 -79 -25
0 -23 -3 -25 -50 -25 -47 0 -50 2 -50 25 l0 25 -130 0 -130 0 0 -25 0 -25
-220 0 -220 0 0 25 0 25 -140 0 -140 0 0 -25 0 -25 -160 0 -160 0 -12 25 c-11
25 -12 25 -145 25 l-134 0 7 -22z"/>
<path d="M229 911 c6 -10 7 -21 4 -25 -13 -12 -32 -5 -38 14 -4 11 -10 18 -15
15 -12 -7 10 -55 24 -55 6 0 30 8 53 18 46 18 59 38 19 28 -16 -4 -26 -1 -30
9 -3 8 -10 15 -16 15 -7 0 -8 -6 -1 -19z"/>
<path d="M2461 861 c-7 -12 -7 -22 -2 -26 5 -3 13 4 16 16 9 28 -1 36 -14 10z"/>
<path d="M270 862 c0 -5 7 -17 15 -28 15 -19 20 -8 9 20 -6 17 -24 22 -24 8z"/>
<path d="M406 788 c4 -7 20 -32 36 -55 l29 -43 129 0 c109 0 130 2 130 15 0
12 18 15 105 15 87 0 105 -3 105 -15 0 -13 22 -15 140 -15 118 0 140 2 140 15
0 13 31 15 220 15 189 0 220 -2 220 -15 0 -13 21 -15 130 -15 109 0 130 2 130
15 0 11 12 15 50 15 38 0 50 -4 50 -15 0 -13 20 -15 124 -15 l124 0 23 36 c22
36 23 36 31 15 4 -13 6 -27 3 -31 -3 -5 4 -15 16 -24 12 -8 19 -19 15 -24 -3
-5 3 -17 14 -27 17 -15 22 -16 36 -4 15 12 14 15 -4 29 -17 14 -18 19 -6 35
11 15 17 16 26 7 7 -7 18 -12 26 -12 23 0 -3 25 -48 48 -35 17 -41 17 -52 5
-10 -13 -13 -12 -20 7 -5 14 -4 28 3 36 10 12 -14 14 -150 14 l-161 0 0 -30
c0 -29 -1 -30 -50 -30 -49 0 -50 1 -50 30 l0 30 -130 0 -130 0 0 -30 0 -30
-220 0 -220 0 0 30 0 30 -140 0 -140 0 0 -30 0 -30 -105 0 -104 0 -23 30 -22
30 -143 0 c-113 0 -143 -3 -137 -12z m1981 -64 c5 -17 -15 -37 -31 -31 -14 5
-15 11 -6 27 11 21 31 23 37 4z"/>
<path d="M333 709 c-24 -17 -43 -33 -43 -37 0 -4 16 -25 35 -47 l35 -40 27 30
c19 21 24 24 19 10 -18 -46 -18 -81 -1 -95 15 -12 21 -9 50 26 41 47 44 42 10
-19 -29 -52 -22 -65 21 -36 42 28 49 23 19 -12 -24 -30 -25 -33 -9 -50 20 -22
42 -26 24 -4 -7 8 -9 22 -6 31 6 15 8 15 26 -1 11 -10 20 -13 20 -8 0 6 -7 16
-15 23 -12 10 -13 16 -4 27 10 11 15 11 30 -3 18 -16 18 -18 -11 -58 -18 -23
-26 -42 -20 -44 6 -2 17 4 25 14 13 18 15 18 31 2 15 -15 15 -19 4 -34 -13
-14 -10 -20 20 -45 19 -16 38 -29 41 -29 4 0 14 12 24 26 18 28 18 28 -25 54
-12 7 -13 11 -2 22 14 14 49 -2 44 -21 -1 -6 3 -11 9 -11 6 0 1 -15 -10 -34
-25 -39 -26 -50 -7 -43 9 4 13 1 10 -6 -2 -7 10 -20 28 -30 31 -18 33 -18 46
0 13 17 14 16 7 -4 -8 -27 3 -30 20 -6 19 25 47 10 39 -22 -6 -25 10 -36 19
-12 3 7 6 5 6 -6 1 -20 43 -42 63 -34 8 3 20 24 28 47 13 39 13 43 -5 56 -28
21 -54 17 -65 -9 -9 -19 -9 -18 -5 9 5 26 2 32 -22 43 -24 11 -29 10 -46 -11
l-18 -23 12 24 c10 21 8 26 -12 42 -31 24 -46 24 -59 -2 -7 -11 -14 -18 -17
-15 -3 3 0 12 7 21 17 21 8 38 -34 60 -35 19 -36 19 -50 0 -9 -11 -16 -15 -16
-9 0 5 6 16 13 23 10 10 1 22 -43 61 l-55 49 -34 -20 c-41 -24 -47 -20 -26 20
12 24 13 36 5 51 -13 25 -16 25 -47 0 -15 -11 -28 -19 -30 -17 -2 2 3 22 11
44 20 56 4 70 -40 36 -33 -25 -64 -26 -64 -2 0 7 17 27 38 46 46 41 32 42 -25
2z m42 -79 c-10 -11 -22 -20 -28 -20 -5 0 1 9 14 20 31 25 37 25 14 0z m84
-46 c-13 -14 -33 -30 -44 -35 -11 -6 -2 6 20 25 47 42 58 47 24 10z m166 -134
c0 -22 -29 -18 -33 3 -3 14 1 18 15 15 10 -2 18 -10 18 -18z m45 -91 c0 -13
-17 -20 -34 -13 -9 3 -16 17 -16 30 0 24 1 24 25 8 14 -9 25 -20 25 -25z m119
-8 c13 -8 12 -15 -4 -45 -21 -39 -23 -40 -44 -27 -11 7 -11 15 -1 45 12 37 24
43 49 27z m78 -39 c7 -4 9 -13 4 -21 -11 -18 -52 -5 -44 15 6 15 21 18 40 6z
m85 -54 c-9 -44 -24 -65 -43 -61 -22 6 -22 6 -9 55 10 33 13 36 33 29 12 -5
21 -15 19 -23z"/>
<path d="M2286 658 l-25 -33 22 -24 22 -24 -28 18 c-26 17 -28 17 -47 0 -25
-22 -25 -33 -2 -59 17 -21 17 -21 -4 -3 -34 28 -40 19 -9 -13 31 -32 24 -37
-32 -21 -42 12 -48 3 -21 -28 l23 -26 -27 24 -28 24 -25 -23 c-22 -21 -23 -25
-10 -40 8 -9 15 -21 15 -26 0 -5 -9 2 -19 15 l-18 24 -31 -23 c-34 -25 -33
-30 12 -85 13 -16 28 -27 32 -23 4 4 1 15 -7 24 -12 14 -10 19 10 35 22 18 25
19 42 3 24 -22 34 -12 17 15 -11 18 -11 23 2 31 10 6 20 4 31 -6 20 -18 33
-18 26 0 -4 10 -1 13 9 9 23 -9 16 14 -12 36 -29 23 -18 26 35 11 30 -8 33 -8
28 11 -4 15 -2 18 7 10 20 -17 28 0 10 21 -14 14 -14 20 -4 33 12 14 15 14 30
0 15 -14 18 -13 33 3 16 18 16 20 -1 35 -10 10 -23 17 -29 17 -6 0 -16 6 -22
14 -22 27 8 28 42 2 48 -37 59 -32 14 5 -42 34 -48 54 -15 43 20 -6 21 -5 9
10 -19 23 -26 20 -55 -16z m-19 -76 c10 -6 10 -12 -1 -28 -17 -23 -41 -8 -30
19 7 19 13 20 31 9z m64 -19 c13 -16 12 -17 -3 -4 -10 7 -18 15 -18 17 0 8 8
3 21 -13z m-186 -103 c4 -6 1 -17 -5 -26 -10 -11 -16 -12 -26 -3 -11 9 -11 15
-3 25 14 17 25 18 34 4z m-62 -54 c6 -16 -11 -36 -30 -36 -16 0 -17 22 -1 38
16 16 25 15 31 -2z"/>
<path d="M519 633 c5 -10 23 -31 39 -46 l30 -29 176 2 c171 1 176 0 176 -20 0
-19 6 -20 140 -20 133 0 140 1 140 20 0 19 7 20 220 20 213 0 220 -1 220 -20
0 -19 7 -20 130 -20 123 0 130 1 130 20 0 18 7 20 54 20 45 0 54 -3 59 -20 4
-15 14 -20 39 -20 28 0 44 11 98 65 l64 65 -102 0 -102 0 0 -35 0 -35 -55 0
-55 0 0 35 0 35 -130 0 -130 0 0 -35 0 -35 -220 0 -220 0 0 35 0 35 -140 0
-140 0 0 -35 0 -35 -157 0 -157 0 34 35 34 35 -92 0 c-85 0 -92 -1 -83 -17z"/>
<path d="M940 455 l0 -35 -87 0 c-61 0 -83 -3 -73 -10 8 -5 47 -10 86 -10 55
0 73 -4 78 -15 4 -12 30 -15 141 -15 113 0 135 2 135 15 0 12 13 15 60 15 43
0 59 -4 57 -12 -1 -10 59 -14 271 -16 265 -2 273 -2 315 20 36 19 39 23 20 26
-19 3 -23 10 -23 38 l0 34 -128 0 -128 0 -17 -35 -17 -35 -205 0 -205 0 0 35
0 35 -140 0 -140 0 0 -35z"/>
<path d="M1945 354 c-11 -9 -37 -22 -57 -31 -21 -8 -38 -17 -38 -19 0 -3 11
-27 25 -54 l25 -50 33 16 c42 22 40 19 27 46 -10 21 -10 21 3 6 17 -22 28 -22
53 -3 18 15 18 15 -8 9 -21 -5 -28 -2 -28 9 0 9 5 19 10 22 6 3 10 10 10 16 0
5 -9 4 -20 -3 -17 -11 -22 -10 -30 2 -7 11 -4 17 10 24 11 5 20 13 20 18 0 12
-12 9 -35 -8z m-11 -71 c17 -36 17 -38 0 -50 -15 -11 -20 -11 -28 4 -5 10 -16
24 -23 31 -18 18 -16 29 5 41 25 15 27 14 46 -26z"/>
<path d="M946 331 c14 -14 166 -59 223 -67 l51 -7 0 42 0 41 -142 0 c-85 0
-138 -4 -132 -9z"/>
<path d="M1330 294 l0 -47 118 6 c117 5 223 27 319 67 l48 19 -242 0 -243 1 0
-46z"/>
<path d="M1763 270 c-13 -5 -23 -14 -23 -20 0 -6 -5 -8 -10 -5 -6 4 -24 3 -41
0 -30 -7 -31 -9 -25 -44 4 -25 2 -31 -4 -21 -5 8 -10 23 -10 34 0 15 -5 17
-27 12 -16 -3 -56 -9 -90 -12 -60 -7 -63 -8 -63 -34 0 -15 3 -42 6 -59 6 -30
8 -31 43 -25 20 4 39 11 42 17 4 6 8 6 10 -1 2 -5 19 -7 37 -5 28 5 32 9 32
34 0 16 -4 29 -9 29 -16 0 -22 -18 -9 -23 10 -3 10 -7 1 -17 -18 -19 -40 -5
-48 30 -9 39 5 55 39 46 19 -5 27 -15 32 -41 7 -42 24 -56 25 -23 1 19 2 19 6
4 4 -15 11 -17 41 -12 20 3 38 10 40 15 2 6 11 7 19 4 13 -5 15 -2 9 13 -13
33 -12 38 11 42 15 2 23 -3 28 -18 4 -14 11 -18 16 -13 11 11 -30 102 -46 102
-5 0 -20 -4 -32 -9z m40 -24 c4 -9 -2 -17 -14 -21 -25 -8 -34 -1 -26 20 8 19
33 20 40 1z m-53 -26 c0 -4 -3 -22 -6 -39 -9 -46 -47 -44 -61 3 -6 19 -8 37
-6 40 8 8 73 4 73 -4z m-216 -65 c0 -32 -5 -41 -21 -43 -16 -2 -21 4 -26 35
-7 39 4 55 33 50 11 -2 15 -14 14 -42z m23 -17 c-3 -8 -6 -5 -6 6 -1 11 2 17
5 13 3 -3 4 -12 1 -19z"/>
<path d="M1030 245 c9 -11 9 -22 0 -50 -6 -19 -10 -41 -7 -48 2 -6 10 7 17 31
10 30 19 42 32 42 15 0 18 -5 14 -20 -3 -11 -9 -30 -12 -41 -7 -24 9 -39 41
-38 18 0 18 1 -3 11 -28 14 -24 30 9 38 l24 6 -22 8 c-32 10 -29 36 3 36 26 0
26 -1 19 -55 -6 -54 -6 -55 19 -56 14 -1 32 -2 38 -3 7 -1 14 8 16 19 2 15 1
16 -6 7 -9 -14 -53 -13 -52 1 0 4 0 21 0 37 0 38 23 49 50 25 13 -12 20 -31
20 -57 0 -26 4 -37 11 -32 6 3 9 19 7 35 -3 16 -3 29 -1 29 1 0 12 -18 23 -41
24 -45 29 -45 41 3 l8 33 -2 -35 c-2 -34 -1 -35 36 -38 30 -3 37 0 37 15 0 10
3 35 6 56 l7 37 -52 0 -51 0 0 -35 c0 -45 -15 -45 -30 0 -13 41 -28 51 -90 58
-25 3 -67 13 -95 21 -62 20 -71 20 -55 1z m348 -97 c-2 -36 -7 -44 -25 -46
-21 -3 -23 1 -23 42 0 43 2 46 26 46 23 0 25 -3 22 -42z"/>
<path d="M1408 165 c-14 -71 -12 -75 30 -74 32 1 33 2 12 8 -21 6 -26 14 -30
56 l-5 50 -7 -40z"/>
</g>
</svg>
